<svg xmlns="http://www.w3.org/2000/svg" width="1200" height="800" viewBox="0 0 1200 800">
  <defs>
    <linearGradient id="wall" x1="0" y1="0" x2="1" y2="1"><stop stop-color="#20242a"/><stop offset="1" stop-color="#0f1114"/></linearGradient>
    <linearGradient id="floor" x1="0" y1="0" x2="0" y2="1"><stop stop-color="#191c20"/><stop offset="1" stop-color="#090a0c"/></linearGradient>
    <radialGradient id="glow"><stop stop-color="#ffd98c" stop-opacity=".75"/><stop offset="1" stop-color="#ffd98c" stop-opacity="0"/></radialGradient>
  </defs>
  <rect width="1200" height="800" fill="url(#wall)"/>
  <path d="M0 555H1200V800H0Z" fill="url(#floor)"/>
  <path d="M0 555H1200M204 555 104 800M443 555 412 800M756 555 795 800M996 555 1110 800" stroke="#ffffff" stroke-opacity=".06" stroke-width="2"/>
  <rect x="70" y="70" width="410" height="390" rx="24" fill="#15181c" stroke="#fff" stroke-opacity=".08"/>
  <path d="M106 112H444M106 148H345" stroke="#fff" stroke-opacity=".1" stroke-width="8" stroke-linecap="round"/>
  <circle cx="1035" cy="132" r="75" fill="#9bc9ff" fill-opacity=".08"/>
  <text x="1035" y="140" fill="#cde4ff" fill-opacity=".45" font-family="ui-monospace,monospace" font-size="22" text-anchor="middle">SCENE 04</text>
  <path d="M235 495c-24-85-12-170 35-258M267 464c46-83 77-151 95-228M250 382c-67-58-96-107-88-148M280 350c32-93 71-142 118-164" fill="none" stroke="#819b73" stroke-width="13" stroke-linecap="round"/>
  <path d="M176 244c41 5 69 28 82 68-44-5-72-27-82-68ZM351 236c-33 18-51 47-52 86 37-18 55-47 52-86ZM385 181c-31 18-48 45-50 81 36-16 53-43 50-81ZM152 224c-31-14-57-11-79 8 31 19 58 16 79-8Z" fill="#9bb58d"/>
  <path d="M164 485h196l-27 238H191Z" fill="#dfe5e8"/><path d="M181 507h162l-4 33H177Z" fill="#b9c6ca"/>
  <ellipse cx="262" cy="486" rx="98" ry="30" fill="#f2f4f5"/><ellipse cx="262" cy="486" rx="61" ry="14" fill="#747d82"/>
  <path d="M572 333c0-41 33-74 74-74h238c41 0 74 33 74 74v195H572Z" fill="#d6a44d"/><path d="M598 347c0-29 24-53 53-53h228c29 0 53 24 53 53v151H598Z" fill="#efbd5c"/>
  <rect x="531" y="475" width="478" height="99" rx="44" fill="#c78935"/><path d="m584 548-42 184M946 548l42 184" stroke="#8a5e2e" stroke-width="25" stroke-linecap="round"/><path d="M536 508h470" stroke="#ffd77c" stroke-opacity=".42" stroke-width="7"/>
  <circle cx="965" cy="279" r="180" fill="url(#glow)"/><circle cx="965" cy="279" r="80" fill="#ffd785"/><circle cx="942" cy="252" r="23" fill="#fff4d3" fill-opacity=".85"/><path d="M965 359v303M899 674h132" stroke="#d6d9dd" stroke-width="18" stroke-linecap="round"/>
</svg>
