<svg xmlns="http://www.w3.org/2000/svg" width="1200" height="800" viewBox="0 0 1200 800">
  <g>
    <path d="M235 495c-24-85-12-170 35-258M267 464c46-83 77-151 95-228M250 382c-67-58-96-107-88-148M280 350c32-93 71-142 118-164" fill="none" stroke="#819b73" stroke-width="13" stroke-linecap="round"/>
    <path d="M176 244c41 5 69 28 82 68-44-5-72-27-82-68ZM351 236c-33 18-51 47-52 86 37-18 55-47 52-86ZM385 181c-31 18-48 45-50 81 36-16 53-43 50-81ZM152 224c-31-14-57-11-79 8 31 19 58 16 79-8Z" fill="#9bb58d"/>
    <path d="M164 485h196l-27 238H191Z" fill="#dfe5e8"/>
    <path d="M181 507h162l-4 33H177Z" fill="#b9c6ca"/>
    <ellipse cx="262" cy="486" rx="98" ry="30" fill="#f2f4f5"/>
    <ellipse cx="262" cy="486" rx="61" ry="14" fill="#747d82"/>
  </g>
</svg>
